<?xml version="1.0" standalone="no"?><!DOCTYPE svg PUBLIC "-//W3C//DTD SVG 1.1//EN" "http://www.w3.org/Graphics/SVG/1.1/DTD/svg11.dtd"><svg class="icon" width="200px" height="200.00px" viewBox="0 0 1024 1024" version="1.1" xmlns="http://www.w3.org/2000/svg"><path fill="#333333" d="M480 736v-96h-160v96h160z m64 0h160v-96h-160v96z m-224-160h384V288h-32a32 32 0 0 1 0-64h32a64 64 0 0 1 64 64v448a64 64 0 0 1-64 64H320a64 64 0 0 1-64-64V288a64 64 0 0 1 64-64h33.6a32 32 0 1 1 0 64H320v288z m105.984-85.824l76.48-81.984h-54.4c-27.968 0-42.496-33.376-23.392-53.824l112.096-120.192a32 32 0 0 1 46.816 43.648l-61.92 66.368h54.4c27.968 0 42.496 33.376 23.392 53.824l-126.656 135.808a32 32 0 1 1-46.816-43.648z" /></svg>